<svg xmlns="http://www.w3.org/2000/svg" version="1.2" viewBox="0 0 100 100"><path d="M87.5 5h-75A7.5 7.5 0 0 0 5 12.5V65a7.5 7.5 0 0 0 7.5 7.5h12.625C26.379 85.133 37.037 95 50 95s23.621-9.867 24.875-22.5H87.5A7.5 7.5 0 0 0 95 65V12.5A7.5 7.5 0 0 0 87.5 5zM50 87.5c-9.65 0-17.5-7.85-17.5-17.5S40.35 52.5 50 52.5 67.5 60.35 67.5 70 59.65 87.5 50 87.5zM87.5 65H74.499C72.182 53.589 62.095 45 50 45s-22.182 8.589-24.499 20H12.5V35h75v30zm0-45h-75v-7.5h75V20z"/><path d="M56.982 59.482 50 66.465l-6.982-6.983-3.536 3.536L46.465 70l-6.983 6.982 3.536 3.536L50 73.535l6.982 6.983 3.536-3.536L53.535 70l6.983-6.982z"/></svg>